<?xml version="1.0" encoding="UTF-8"?>
<!-- Generator: Adobe Illustrator 16.0.3, SVG Export Plug-In . SVG Version: 6.00 Build 0)  -->
<!DOCTYPE svg PUBLIC "-//W3C//DTD SVG 1.1//EN" "http://www.w3.org/Graphics/SVG/1.1/DTD/svg11.dtd">
<svg version="1.1" id="Capa_1" xmlns="http://www.w3.org/2000/svg" xmlns:xlink="http://www.w3.org/1999/xlink" x="0px" y="0px" width="331px" height="164.333px" viewBox="0 0 331 164.333" enable-background="new 0 0 331 164.333" xml:space="preserve">
<g>
	<g>
		<path fill="#FFFFFF" d="M18.757,115.57V47.356h15.903c8.333,0,15.904,3.354,15.904,13.795V75.14    c0,10.444-7.57,13.797-15.904,13.797h-2.395v26.633H18.757z M32.266,79.164h1.628c2.205,0,3.162-1.054,3.162-4.312V61.441    c0-3.259-0.958-4.311-3.162-4.311h-1.628V79.164z"/>
		<path fill="#FFFFFF" d="M70.489,109.437h-0.192c0,3.736-4.119,6.803-7.758,6.803c-6.324,0-8.526-4.021-8.526-9.771V60.771h12.166    v42.633c0,1.34,0.479,2.873,2.109,2.873c1.626,0,2.202-1.533,2.202-2.873V60.771h12.167v54.799H70.489V109.437z"/>
		<path fill="#FFFFFF" d="M98.078,65.562h0.19c0.768-3.355,4.983-5.465,8.24-5.465c7.76,0,8.049,5.655,8.049,11.979v43.494h-12.17    V72.937c0-1.342-0.574-2.875-2.202-2.875c-1.629,0-2.107,1.533-2.107,2.875v42.633H85.911V60.771h12.167V65.562z"/>
		<path fill="#FFFFFF" d="M131.895,60.771h3.354v9.004h-3.354v33.053c0,1.725,0.286,3.736,2.107,3.736h1.437v9.006h-5.461    c-8.718,0-10.251-2.684-10.251-11.113V69.774h-3.257v-9.004h3.257v-9.965h12.169V60.771z"/>
		<path fill="#FFFFFF" d="M137.353,72.46c0-8.241,6.515-12.363,14.275-12.363c7.665,0,14.371,4.122,14.371,12.363v31.997    c0,3.832,0.575,7.473,0.862,11.113h-12.358l-0.672-5.557h-0.191c-1.627,4.408-4.598,6.227-8.142,6.227    c-6.131,0-8.145-3.639-8.145-9.867V94.589c0-13.797,16.477-8.527,16.477-20.407v-2.203c0-1.342-0.574-2.873-2.202-2.873    c-1.629,0-2.107,1.531-2.107,2.873v7.854h-12.167V72.46z M149.521,104.361c0,1.342,0.478,2.873,2.107,2.873    c1.628,0,2.202-1.531,2.202-2.873V88.552l-2.202,1.533c-1.725,1.531-2.107,1.916-2.107,4.313V104.361z"/>
		<path fill="#FFFFFF" d="M201.251,88.746v15.711c0,9.1-7.569,12.453-15.903,12.453c-8.333,0-15.903-3.354-15.903-12.453V58.47    c0-9.1,7.57-12.455,15.903-12.455c8.334,0,15.903,3.355,15.903,12.455v12.936h-13.508v-10.73c0-1.916-0.288-4.502-2.396-4.502    c-2.108,0-2.395,2.586-2.395,4.502v41.577c0,1.916,0.286,4.504,2.395,4.504c2.107,0,2.396-2.588,2.396-4.504V88.746H201.251z"/>
		<path fill="#FFFFFF" d="M204.7,72.46c0-8.241,6.514-12.363,14.274-12.363c7.663,0,14.37,4.122,14.37,12.363v31.997    c0,3.832,0.573,7.473,0.862,11.113h-12.359l-0.672-5.557h-0.19c-1.628,4.408-4.599,6.227-8.143,6.227    c-6.133,0-8.143-3.639-8.143-9.867V94.589c0-13.797,16.476-8.527,16.476-20.407v-2.203c0-1.342-0.574-2.873-2.201-2.873    c-1.631,0-2.108,1.531-2.108,2.873v7.854H204.7V72.46z M216.866,104.361c0,1.342,0.478,2.873,2.108,2.873    c1.627,0,2.201-1.531,2.201-2.873V88.552l-2.201,1.533c-1.727,1.531-2.108,1.916-2.108,4.313V104.361z"/>
		<path fill="#FFFFFF" d="M236.599,47.356h12.166v18.205h0.191c1.055-3.161,4.12-5.465,7.762-5.465    c7.568,0,8.527,5.846,8.527,11.979v31.9c0,6.131-0.959,12.264-8.527,12.264c-3.642,0-6.707-2.588-7.762-6.418h-0.191v5.748    h-12.166V47.356z M248.765,103.404c0,1.34,0.48,2.873,2.109,2.873c1.627,0,2.202-1.533,2.202-2.873V72.937    c0-1.342-0.575-2.875-2.202-2.875c-1.629,0.097-2.109,1.438-2.109,2.875V103.404z"/>
		<path fill="#FFFFFF" d="M268.787,115.57V47.356h12.166v68.213H268.787z"/>
		<path fill="#FFFFFF" d="M284.498,72.46c0-8.241,6.514-12.363,14.274-12.363c7.663,0,14.368,4.122,14.368,12.363v17.625h-16.477    v14.275c0,1.342,0.479,2.873,2.108,2.873c1.627,0,2.202-1.531,2.202-2.873V93.82h12.166v10.061c0,8.24-6.705,12.359-14.368,12.359    c-7.761,0-14.274-4.119-14.274-12.359V72.46z M300.974,81.847v-9.867c0-1.342-0.575-2.873-2.202-2.873    c-1.63,0-2.108,1.531-2.108,2.873v9.867H300.974z"/>
	</g>
</g>
<path fill="#FFFFFF" d="M283.474,4.068H48.423c-24.168,0-43.757,16.485-43.757,36.821v81.146c0,20.336,19.589,36.822,43.757,36.822  h235.051c24.166,0,43.757-16.486,43.757-36.822V40.889C327.231,20.553,307.64,4.068,283.474,4.068z M323.657,120.172  c0,19.708-18.979,35.673-42.394,35.673H50.636c-23.417,0-42.397-15.965-42.397-35.673V42.753c0-19.707,18.979-35.677,42.397-35.677  h230.627c23.415,0,42.394,15.97,42.394,35.677V120.172z"/>
</svg>