<?xml version="1.0" encoding="UTF-8"?>
<!-- Generator: Adobe Illustrator 16.0.3, SVG Export Plug-In . SVG Version: 6.00 Build 0)  -->
<!DOCTYPE svg PUBLIC "-//W3C//DTD SVG 1.1//EN" "http://www.w3.org/Graphics/SVG/1.1/DTD/svg11.dtd">
<svg version="1.1" id="Capa_1" xmlns="http://www.w3.org/2000/svg" xmlns:xlink="http://www.w3.org/1999/xlink" x="0px" y="0px" width="184.667px" height="51.333px" viewBox="0 0 184.667 51.333" enable-background="new 0 0 184.667 51.333" xml:space="preserve">
<g>
	<path fill="#FFFFFF" d="M182.176,28.424c0,11.047-8.954,20-20,20h-140c-11.046,0-20-8.953-20-20v-5c0-11.045,8.954-20,20-20h140   c11.047,0,20,8.955,20,20V28.424z"/>
	<g>
		<g>
			<g>
				<path fill="#F9B226" d="M15.23,36.657V14.048h5.271c2.762,0,5.271,1.112,5.271,4.572v4.637c0,3.461-2.509,4.572-5.271,4.572      h-0.793v8.827H15.23z M19.708,24.591h0.54c0.731,0,1.048-0.35,1.048-1.43v-4.444c0-1.08-0.317-1.429-1.048-1.429h-0.54V24.591z"/>
				<path fill="#F9B226" d="M32.376,34.625h-0.064c0,1.238-1.365,2.254-2.571,2.254c-2.096,0-2.826-1.332-2.826-3.238V18.494h4.032      v14.131c0,0.443,0.159,0.952,0.699,0.952c0.539,0,0.73-0.509,0.73-0.952V18.494h4.032v18.163h-4.032V34.625z"/>
				<path fill="#F9B226" d="M41.52,20.082h0.063c0.254-1.111,1.651-1.81,2.731-1.81c2.572,0,2.667,1.874,2.667,3.97v14.415h-4.034      v-14.13c0-0.444-0.19-0.953-0.729-0.953s-0.698,0.509-0.698,0.953v14.13h-4.033V18.494h4.033V20.082z"/>
				<path fill="#F9B226" d="M52.728,18.494h1.111v2.985h-1.111v10.954c0,0.572,0.095,1.239,0.698,1.239h0.476v2.984h-1.81      c-2.89,0-3.397-0.89-3.397-3.683V21.479h-1.08v-2.985h1.08v-3.301h4.033V18.494z"/>
				<path fill="#F9B226" d="M54.536,22.369c0-2.73,2.159-4.097,4.731-4.097c2.54,0,4.763,1.366,4.763,4.097v10.605      c0,1.27,0.19,2.476,0.286,3.683H60.22l-0.223-1.841h-0.063c-0.539,1.46-1.523,2.063-2.698,2.063c-2.032,0-2.7-1.206-2.7-3.27      v-3.906c0-4.572,5.461-2.826,5.461-6.764v-0.729c0-0.444-0.19-0.952-0.729-0.952c-0.54,0-0.699,0.508-0.699,0.952v2.604h-4.033      V22.369z M58.569,32.942c0,0.444,0.159,0.952,0.699,0.952c0.539,0,0.729-0.508,0.729-0.952v-5.239l-0.729,0.508      c-0.572,0.508-0.699,0.635-0.699,1.43V32.942z"/>
				<path fill="#F9B226" d="M75.714,27.766v5.208c0,3.016-2.508,4.127-5.271,4.127s-5.271-1.111-5.271-4.127V17.732      c0-3.016,2.509-4.127,5.271-4.127s5.271,1.111,5.271,4.127v4.287h-4.477v-3.557c0-0.635-0.095-1.492-0.793-1.492      c-0.699,0-0.794,0.857-0.794,1.492v13.781c0,0.635,0.095,1.492,0.794,1.492c0.698,0,0.793-0.857,0.793-1.492v-4.478H75.714z"/>
				<path fill="#F9B226" d="M76.857,22.369c0-2.73,2.159-4.097,4.731-4.097c2.54,0,4.763,1.366,4.763,4.097v10.605      c0,1.27,0.19,2.476,0.286,3.683H82.54l-0.223-1.841h-0.063c-0.539,1.46-1.524,2.063-2.699,2.063      c-2.032,0-2.698-1.206-2.698-3.27v-3.906c0-4.572,5.46-2.826,5.46-6.764v-0.729c0-0.444-0.19-0.952-0.729-0.952      c-0.541,0-0.699,0.508-0.699,0.952v2.604h-4.032V22.369z M80.889,32.942c0,0.444,0.158,0.952,0.699,0.952      c0.539,0,0.729-0.508,0.729-0.952v-5.239l-0.729,0.508c-0.572,0.508-0.699,0.635-0.699,1.43V32.942z"/>
				<path fill="#F9B226" d="M87.429,14.048h4.032v6.033h0.063c0.35-1.047,1.366-1.81,2.573-1.81c2.508,0,2.826,1.937,2.826,3.97      v10.572c0,2.033-0.318,4.064-2.826,4.064c-1.207,0-2.223-0.857-2.573-2.127h-0.063v1.905h-4.032V14.048z M91.461,32.625      c0,0.443,0.16,0.952,0.699,0.952s0.73-0.509,0.73-0.952V22.527c0-0.444-0.191-0.953-0.73-0.953      c-0.54,0.032-0.699,0.477-0.699,0.953V32.625z"/>
				<path fill="#F9B226" d="M98.097,36.657V14.048h4.032v22.608H98.097z"/>
				<path fill="#F9B226" d="M103.304,22.369c0-2.73,2.159-4.097,4.731-4.097c2.54,0,4.763,1.366,4.763,4.097v5.842h-5.461v4.731      c0,0.444,0.159,0.952,0.699,0.952c0.54,0,0.729-0.508,0.729-0.952v-3.493h4.033v3.334c0,2.73-2.223,4.096-4.763,4.096      c-2.572,0-4.731-1.365-4.731-4.096V22.369z M108.764,25.48v-3.271c0-0.444-0.189-0.952-0.729-0.952      c-0.54,0-0.699,0.508-0.699,0.952v3.271H108.764z"/>
			</g>
		</g>
		<g>
			<g>
				<path fill="#5B75B5" d="M122.018,14.152h7.144c3.636,0,5.274,2.89,5.274,6.691c0,4.439-2.125,6.75-5.991,6.75h-1.664v8.272      h-4.763V14.152z M126.781,23.519h0.896c1.203,0,1.844-0.821,1.844-2.646c0-1.793-0.641-2.645-1.844-2.645h-0.896V23.519z"/>
				<path fill="#5B75B5" d="M135.823,14.152h4.608v21.714h-4.608V14.152z"/>
				<path fill="#5B75B5" d="M149.087,35.866c-0.153-0.577-0.205-1.187-0.282-1.854h-0.051c-0.512,1.459-1.741,2.28-3.123,2.28      c-2.766,0-3.842-2.007-3.842-4.835c0-3.041,0.896-4.471,3.842-5.292l1.817-0.517c0.999-0.273,1.356-0.791,1.356-1.795      c0-1.003-0.384-1.52-1.178-1.52c-0.87,0-1.279,0.455-1.305,2.189h-3.995c0-4.715,3.2-5.535,5.3-5.535      c3.227,0,5.48,1.004,5.48,5.291v8.029c0,1.52,0.051,2.706,0.435,3.558H149.087z M148.805,29.906v-1.977h-0.051      c-0.256,0.426-0.896,0.395-1.563,0.76c-0.717,0.395-0.947,1.033-0.947,2.129c0,1.094,0.436,1.794,1.127,1.794      C148.396,32.612,148.805,31.699,148.805,29.906z"/>
				<path fill="#5B75B5" d="M155.518,37.265c0.332,0.091,0.691,0.121,1.023,0.121c1.152,0,1.537-0.912,1.537-1.246      c0-0.244-0.104-0.791-0.205-1.217l-3.662-15.51h4.763l1.408,11.1h0.052l1.331-11.1h4.608l-3.713,17      c-0.818,3.771-2.074,4.805-4.557,4.805c-0.974,0-1.818-0.031-2.586-0.122V37.265z"/>
			</g>
		</g>
	</g>
</g>
</svg>