<?xml version="1.0" encoding="UTF-8"?>
<!-- Generator: Adobe Illustrator 16.0.3, SVG Export Plug-In . SVG Version: 6.00 Build 0)  -->
<!DOCTYPE svg PUBLIC "-//W3C//DTD SVG 1.1//EN" "http://www.w3.org/Graphics/SVG/1.1/DTD/svg11.dtd">
<svg version="1.1" id="Capa_1" xmlns="http://www.w3.org/2000/svg" xmlns:xlink="http://www.w3.org/1999/xlink" x="0px" y="0px" width="344.333px" height="132px" viewBox="0 0 344.333 132" enable-background="new 0 0 344.333 132" xml:space="preserve">
<g>
	<g>
		<path fill="#F9B226" d="M219.025,96.131c0,16.847-13.655,30.502-30.5,30.502H37.243c-16.846,0-30.5-13.655-30.5-30.502V35.655    c0-16.846,13.655-30.501,30.5-30.501h151.283c16.845,0,30.5,13.655,30.5,30.501V96.131z"/>
		<g>
			<path fill="#FFFFFF" d="M25.312,86.184V45.602h9.462c4.958,0,9.461,1.994,9.461,8.206v8.321c0,6.214-4.503,8.209-9.461,8.209     h-1.425v15.846H25.312z M33.349,64.524h0.969c1.311,0,1.88-0.627,1.88-2.564v-7.979c0-1.939-0.569-2.565-1.88-2.565h-0.969     V64.524z"/>
			<path fill="#FFFFFF" d="M56.09,82.536h-0.114c0,2.223-2.451,4.047-4.615,4.047c-3.763,0-5.074-2.394-5.074-5.814V53.58h7.238     v25.364c0,0.799,0.284,1.711,1.254,1.711c0.967,0,1.311-0.912,1.311-1.711V53.58h7.239v32.604H56.09V82.536z"/>
			<path fill="#FFFFFF" d="M72.503,56.431h0.114c0.456-1.995,2.963-3.249,4.902-3.249c4.617,0,4.788,3.364,4.788,7.125v25.877     h-7.239V60.819c0-0.797-0.341-1.709-1.31-1.709c-0.97,0-1.255,0.912-1.255,1.709v25.365h-7.239V53.58h7.239V56.431z"/>
			<path fill="#FFFFFF" d="M92.623,53.58h1.995v5.358h-1.995v19.664c0,1.025,0.17,2.224,1.254,2.224h0.855v5.358h-3.249     c-5.188,0-6.1-1.598-6.1-6.612V58.938h-1.938V53.58h1.938v-5.925h7.24V53.58z"/>
			<path fill="#FFFFFF" d="M95.871,60.536c0-4.902,3.876-7.354,8.492-7.354c4.561,0,8.55,2.451,8.55,7.354v19.036     c0,2.28,0.342,4.446,0.513,6.612h-7.354l-0.399-3.306h-0.113c-0.968,2.62-2.735,3.704-4.844,3.704     c-3.647,0-4.844-2.166-4.844-5.87v-7.011c0-8.209,9.802-5.074,9.802-12.141V60.25c0-0.799-0.342-1.709-1.31-1.709     c-0.97,0-1.254,0.91-1.254,1.709v4.673h-7.238V60.536z M103.109,79.515c0,0.798,0.284,1.71,1.254,1.71     c0.968,0,1.31-0.912,1.31-1.71V70.11l-1.31,0.912c-1.027,0.912-1.254,1.139-1.254,2.566V79.515z"/>
			<path fill="#FFFFFF" d="M133.886,70.224v9.348c0,5.415-4.503,7.409-9.462,7.409c-4.958,0-9.46-1.994-9.46-7.409V52.213     c0-5.416,4.502-7.41,9.46-7.41c4.959,0,9.462,1.994,9.462,7.41v7.695h-8.037v-6.385c0-1.14-0.172-2.679-1.426-2.679     s-1.425,1.539-1.425,2.679V78.26c0,1.141,0.171,2.68,1.425,2.68s1.426-1.539,1.426-2.68v-8.036H133.886z"/>
			<path fill="#FFFFFF" d="M135.937,60.536c0-4.902,3.875-7.354,8.492-7.354c4.561,0,8.55,2.451,8.55,7.354v19.036     c0,2.28,0.341,4.446,0.513,6.612h-7.354l-0.399-3.306h-0.113c-0.968,2.62-2.734,3.704-4.844,3.704     c-3.648,0-4.844-2.166-4.844-5.87v-7.011c0-8.209,9.802-5.074,9.802-12.141V60.25c0-0.799-0.342-1.709-1.31-1.709     c-0.97,0-1.254,0.91-1.254,1.709v4.673h-7.238V60.536z M143.175,79.515c0,0.798,0.284,1.71,1.254,1.71     c0.968,0,1.31-0.912,1.31-1.71V70.11l-1.31,0.912c-1.027,0.912-1.254,1.139-1.254,2.566V79.515z"/>
			<path fill="#FFFFFF" d="M154.915,45.602h7.239v10.829h0.113c0.628-1.88,2.452-3.249,4.618-3.249c4.502,0,5.073,3.477,5.073,7.125     v18.979c0,3.648-0.57,7.297-5.073,7.297c-2.166,0-3.99-1.539-4.618-3.819h-0.113v3.421h-7.239V45.602z M162.154,78.944     c0,0.799,0.286,1.711,1.253,1.711c0.97,0,1.312-0.912,1.312-1.711V60.819c0-0.797-0.342-1.709-1.312-1.709     c-0.967,0.057-1.253,0.854-1.253,1.709V78.944z"/>
			<path fill="#FFFFFF" d="M174.066,86.184V45.602h7.237v40.582H174.066z"/>
			<path fill="#FFFFFF" d="M183.412,60.536c0-4.902,3.876-7.354,8.493-7.354c4.559,0,8.549,2.451,8.549,7.354v10.486h-9.804v8.493     c0,0.798,0.286,1.71,1.255,1.71s1.311-0.912,1.311-1.71v-6.271h7.239v5.985c0,4.902-3.99,7.353-8.549,7.353     c-4.617,0-8.493-2.45-8.493-7.353V60.536z M193.215,66.121v-5.87c0-0.799-0.342-1.709-1.311-1.709s-1.255,0.91-1.255,1.709v5.87     H193.215z"/>
		</g>
	</g>
	<path fill="#FFFFFF" d="M239.912,64.375V18.962c0-6.979,7.557-11.342,13.601-7.852l39.328,22.706l39.328,22.707   c6.045,3.49,6.045,12.215,0,15.704l-39.328,22.706l-39.329,22.704c-6.045,3.49-13.6-0.871-13.6-7.852V64.375z"/>
</g>
</svg>