<?xml version="1.0" encoding="UTF-8"?>
<!-- Generator: Adobe Illustrator 16.0.3, SVG Export Plug-In . SVG Version: 6.00 Build 0)  -->
<!DOCTYPE svg PUBLIC "-//W3C//DTD SVG 1.1//EN" "http://www.w3.org/Graphics/SVG/1.1/DTD/svg11.dtd">
<svg version="1.1" id="Capa_1" xmlns="http://www.w3.org/2000/svg" xmlns:xlink="http://www.w3.org/1999/xlink" x="0px" y="0px" width="158.452px" height="51.333px" viewBox="0 0 158.452 51.333" enable-background="new 0 0 158.452 51.333" xml:space="preserve">
<g>
	<path fill="#FFFFFF" d="M156.202,28.981c0,11.047-7.692,20-17.185,20H18.729c-9.491,0-17.184-8.953-17.184-20v-5   c0-11.045,7.693-20,17.184-20h120.289c9.493,0,17.185,8.955,17.185,20V28.981z"/>
	<g>
		<path fill="#F9B226" d="M24.425,13.812v3.944h-2.791v15.765h-4.7V17.756h-2.779v-3.944H24.425z"/>
		<path fill="#F9B226" d="M35.687,17.367v16.154H31.1l0.078-1.342c-0.313,0.544-0.698,0.953-1.155,1.226s-0.984,0.408-1.58,0.408    c-0.677,0-1.239-0.13-1.686-0.39c-0.446-0.26-0.775-0.604-0.988-1.034c-0.212-0.431-0.344-0.879-0.396-1.346    c-0.052-0.467-0.078-1.394-0.078-2.781V17.367h4.509V28.36c0,1.258,0.035,2.004,0.106,2.239s0.263,0.354,0.575,0.354    c0.334,0,0.534-0.122,0.597-0.365c0.063-0.244,0.095-1.026,0.095-2.35V17.367H35.687z"/>
		<path fill="#F9B226" d="M41.815,17.367l-0.178,2.124c0.654-1.521,1.604-2.327,2.846-2.417v5.686c-0.826,0-1.433,0.122-1.819,0.365    c-0.387,0.244-0.625,0.583-0.714,1.017c-0.089,0.435-0.134,1.435-0.134,3.001v6.379h-4.509V17.367H41.815z"/>
		<path fill="#F9B226" d="M50.075,17.367l-0.078,1.488c0.328-0.594,0.728-1.039,1.2-1.335c0.472-0.297,1.018-0.445,1.635-0.445    c0.774,0,1.406,0.199,1.897,0.597c0.491,0.398,0.807,0.899,0.949,1.503c0.141,0.605,0.212,1.613,0.212,3.025v11.321h-4.509V22.333    c0-1.112-0.034-1.79-0.101-2.033c-0.067-0.243-0.253-0.365-0.558-0.365c-0.32,0-0.521,0.14-0.603,0.42    c-0.082,0.28-0.123,1.028-0.123,2.246v10.92h-4.509V17.367H50.075z"/>
		<path fill="#F9B226" d="M67.644,23.04v3.956c0,1.453-0.067,2.519-0.201,3.196c-0.134,0.678-0.42,1.311-0.859,1.898    c-0.439,0.589-1.003,1.022-1.691,1.303c-0.688,0.28-1.479,0.42-2.372,0.42c-0.997,0-1.842-0.12-2.534-0.359s-1.23-0.6-1.613-1.083    c-0.383-0.482-0.657-1.067-0.82-1.753c-0.164-0.686-0.246-1.715-0.246-3.086v-4.139c0-1.501,0.148-2.674,0.446-3.518    c0.297-0.844,0.833-1.522,1.607-2.033s1.764-0.767,2.969-0.767c1.012,0,1.881,0.165,2.606,0.493    c0.726,0.329,1.286,0.757,1.68,1.284c0.394,0.528,0.664,1.071,0.809,1.631S67.644,21.895,67.644,23.04z M63.135,21.822    c0-0.828-0.041-1.349-0.123-1.564c-0.082-0.215-0.257-0.323-0.524-0.323c-0.268,0-0.447,0.108-0.536,0.323    c-0.089,0.215-0.134,0.736-0.134,1.564v7.292c0,0.764,0.044,1.261,0.134,1.491c0.089,0.231,0.264,0.348,0.525,0.348    c0.268,0,0.444-0.105,0.53-0.316c0.085-0.211,0.128-0.666,0.128-1.364V21.822z"/>
		<path fill="#F9B226" d="M78.337,22.528h-3.996v-0.876c0-0.747-0.039-1.219-0.117-1.418c-0.079-0.199-0.274-0.298-0.586-0.298    c-0.253,0-0.443,0.091-0.569,0.274s-0.189,0.457-0.189,0.822c0,0.495,0.032,0.858,0.095,1.09c0.063,0.231,0.253,0.485,0.569,0.761    s0.965,0.678,1.948,1.205c1.31,0.698,2.169,1.355,2.579,1.972c0.409,0.617,0.614,1.515,0.614,2.69c0,1.315-0.156,2.308-0.47,2.977    c-0.313,0.67-0.835,1.186-1.568,1.546c-0.733,0.361-1.617,0.542-2.651,0.542c-1.146,0-2.126-0.194-2.941-0.584    s-1.375-0.917-1.68-1.583c-0.305-0.665-0.458-1.672-0.458-3.019v-0.779h3.996v1.022c0,0.868,0.05,1.433,0.151,1.692    s0.299,0.39,0.597,0.39c0.32,0,0.543-0.087,0.67-0.262c0.126-0.175,0.189-0.542,0.189-1.102c0-0.771-0.082-1.254-0.246-1.449    c-0.171-0.194-1.045-0.771-2.623-1.729c-1.325-0.812-2.132-1.548-2.422-2.209c-0.291-0.662-0.436-1.447-0.436-2.355    c0-1.291,0.156-2.242,0.469-2.855s0.843-1.085,1.591-1.418c0.748-0.333,1.617-0.5,2.606-0.5c0.982,0,1.817,0.136,2.506,0.408    c0.688,0.272,1.216,0.631,1.585,1.077s0.591,0.86,0.669,1.242c0.078,0.382,0.117,0.978,0.117,1.79V22.528z"/>
		<path fill="#5B75B5" d="M94.791,25.352c0,1.98-0.043,3.383-0.129,4.206c-0.085,0.824-0.354,1.577-0.804,2.259    s-1.059,1.205-1.824,1.57c-0.767,0.365-1.66,0.548-2.68,0.548c-0.967,0-1.836-0.173-2.606-0.518    c-0.77-0.345-1.39-0.862-1.858-1.552c-0.469-0.69-0.747-1.44-0.837-2.253c-0.089-0.811-0.134-2.231-0.134-4.261V21.98    c0-1.98,0.043-3.382,0.128-4.206c0.086-0.824,0.354-1.577,0.804-2.258s1.059-1.205,1.825-1.57s1.659-0.548,2.679-0.548    c0.968,0,1.837,0.172,2.606,0.518c0.771,0.345,1.39,0.862,1.858,1.552c0.469,0.689,0.748,1.44,0.838,2.252    c0.089,0.812,0.134,2.232,0.134,4.261V25.352z M90.091,18.876c0-0.917-0.047-1.503-0.14-1.759    c-0.093-0.256-0.285-0.384-0.575-0.384c-0.245,0-0.434,0.104-0.563,0.311s-0.195,0.818-0.195,1.832v9.204    c0,1.145,0.043,1.851,0.128,2.118c0.086,0.268,0.285,0.401,0.598,0.401c0.319,0,0.524-0.154,0.614-0.462    c0.089-0.309,0.134-1.043,0.134-2.204V18.876z"/>
		<path fill="#5B75B5" d="M100.997,17.367l-0.078,1.488c0.327-0.594,0.727-1.039,1.199-1.335s1.018-0.445,1.636-0.445    c0.773,0,1.406,0.199,1.897,0.597c0.491,0.398,0.808,0.899,0.949,1.503c0.141,0.605,0.212,1.613,0.212,3.025v11.321h-4.51V22.333    c0-1.112-0.033-1.79-0.101-2.033c-0.066-0.243-0.253-0.365-0.558-0.365c-0.32,0-0.521,0.14-0.604,0.42    c-0.082,0.28-0.122,1.028-0.122,2.246v10.92h-4.51V17.367H100.997z"/>
		<path fill="#5B75B5" d="M113.007,13.812v19.709h-4.644V13.812H113.007z"/>
		<path fill="#5B75B5" d="M119.269,13.812v2.568h-4.644v-2.568H119.269z M119.269,17.367v16.154h-4.644V17.367H119.269z"/>
		<path fill="#5B75B5" d="M125.475,17.367l-0.078,1.488c0.327-0.594,0.727-1.039,1.199-1.335s1.018-0.445,1.636-0.445    c0.773,0,1.406,0.199,1.897,0.597c0.491,0.398,0.808,0.899,0.949,1.503c0.141,0.605,0.212,1.613,0.212,3.025v11.321h-4.51V22.333    c0-1.112-0.033-1.79-0.101-2.033c-0.066-0.243-0.253-0.365-0.558-0.365c-0.32,0-0.521,0.14-0.604,0.42    c-0.082,0.28-0.122,1.028-0.122,2.246v10.92h-4.51V17.367H125.475z"/>
		<path fill="#5B75B5" d="M143.055,25.73h-5.837v3.494c0,0.73,0.048,1.201,0.145,1.412s0.283,0.316,0.559,0.316    c0.342,0,0.57-0.141,0.687-0.42c0.115-0.28,0.173-0.822,0.173-1.626v-2.13h4.274v1.193c0,0.998-0.058,1.765-0.173,2.301    c-0.115,0.535-0.385,1.107-0.809,1.716c-0.425,0.609-0.962,1.065-1.613,1.37c-0.651,0.304-1.468,0.456-2.45,0.456    c-0.952,0-1.793-0.15-2.522-0.45s-1.297-0.712-1.702-1.235c-0.406-0.523-0.687-1.1-0.843-1.729s-0.234-1.544-0.234-2.746v-4.711    c0-1.412,0.175-2.526,0.524-3.341c0.35-0.816,0.923-1.44,1.719-1.875c0.797-0.434,1.712-0.651,2.746-0.651    c1.265,0,2.309,0.262,3.131,0.786s1.399,1.217,1.73,2.082s0.496,2.08,0.496,3.646V25.73z M138.535,23.101v-1.181    c0-0.835-0.041-1.375-0.122-1.619c-0.082-0.243-0.25-0.365-0.503-0.365c-0.313,0-0.506,0.104-0.58,0.311s-0.111,0.765-0.111,1.674    v1.181H138.535z"/>
	</g>
</g>
</svg>